<svg width="258" height="91" viewBox="0 0 258 91" fill="none" xmlns="http://www.w3.org/2000/svg">
<path d="M106.729 46.3125C109.576 46.3125 111.885 44.004 111.885 41.1563C111.885 38.3086 109.576 36 106.729 36C103.881 36 101.572 38.3086 101.572 41.1563C101.572 44.004 103.881 46.3125 106.729 46.3125Z" fill="#fff"/>
<path d="M82.6661 46.3125C85.5139 46.3125 87.8224 44.004 87.8224 41.1563C87.8224 38.3086 85.5139 36 82.6661 36C79.8184 36 77.5099 38.3086 77.5099 41.1563C77.5099 44.004 79.8184 46.3125 82.6661 46.3125Z" fill="#fff"/>
<path d="M94.663 15.375C75.688 15.375 60.3224 30.775 60.3224 49.75C60.3224 68.725 75.688 84.125 94.663 84.125C113.672 84.125 129.072 68.725 129.072 49.75C129.072 30.775 113.672 15.375 94.663 15.375ZM94.6974 77.25C79.5036 77.25 67.1974 64.9438 67.1974 49.75C67.1974 34.5563 79.5036 22.25 94.6974 22.25C109.891 22.25 122.197 34.5563 122.197 49.75C122.197 64.9438 109.891 77.25 94.6974 77.25ZM77.5099 56.625C80.1911 64.6688 86.8599 70.375 94.6974 70.375C102.535 70.375 109.204 64.6688 111.885 56.625H77.5099Z" fill="#fff"/>
<path d="M65.5527 17.6463C65.5527 -1.4984 77.0396 -2.77476 85.9738 7.43583" stroke="#fff"/>
<path d="M124.263 17.6463C124.263 -1.49841 112.776 -2.77477 103.842 7.43582" stroke="#fff"/>
<path d="M37.7703 51.672V73H23.8383V51.5L0.532328 12.8H15.3243L31.4063 39.546L47.4883 12.8H61.1623L37.7703 51.672ZM166.804 74.032C158.204 74.032 151.496 71.6527 146.68 66.894C141.921 62.1353 139.542 55.3413 139.542 46.512V12.8H153.474V45.996C153.474 56.7747 157.946 62.164 166.89 62.164C171.247 62.164 174.573 60.874 176.866 58.294C179.159 55.6567 180.306 51.5573 180.306 45.996V12.8H194.066V46.512C194.066 55.3413 191.658 62.1353 186.842 66.894C182.083 71.6527 175.404 74.032 166.804 74.032ZM219.701 32.838C221.307 30.602 223.457 28.9107 226.151 27.764C228.903 26.6173 232.057 26.044 235.611 26.044V38.428C234.121 38.3133 233.117 38.256 232.601 38.256C228.76 38.256 225.75 39.3453 223.571 41.524C221.393 43.6453 220.303 46.856 220.303 51.156V73H206.887V26.732H219.701V32.838ZM243.588 9.188H257.004V73H243.588V9.188Z" fill="#fff"/>
</svg>
